<svg xmlns="http://www.w3.org/2000/svg" width="263.916" height="31.417" viewBox="0 0 263.916 31.417">
  <g id="logo" transform="translate(1773.953 88.063)">
    <g id="Group_13" data-name="Group 13" transform="translate(-1726.709 -84.295)">
      <path id="Path_659" data-name="Path 659" d="M-1670.891-56.405l-4.915-7.045a8.433,8.433,0,0,1-.927.034h-5.43v7.011h-4.468V-80.463h9.9c6.324,0,10.241,3.231,10.241,8.558a7.691,7.691,0,0,1-5.121,7.6l5.533,7.9Zm-6.049-20.277h-5.224v9.589h5.224c3.918,0,5.946-1.788,5.946-4.812S-1673.022-76.682-1676.94-76.682Z" transform="translate(1686.632 80.807)" fill="#fff"/>
      <path id="Path_660" data-name="Path 660" d="M-1621.515-60.151v3.746h-18.043V-80.463H-1622v3.746h-13.094v6.255h11.616v3.677h-11.616v6.633Z" transform="translate(1665.027 80.807)" fill="#fff"/>
      <path id="Path_661" data-name="Path 661" d="M-1574.982-80.463v24.058h-3.677l-13.266-16.29v16.29h-4.433V-80.463h3.677l13.266,16.291V-80.463Z" transform="translate(1645.2 80.807)" fill="#fff"/>
      <path id="Path_662" data-name="Path 662" d="M-1542.01-76.682h-7.973v-3.781h20.415v3.781h-7.974v20.277h-4.468Z" transform="translate(1623.915 80.807)" fill="#fff"/>
      <path id="Path_663" data-name="Path 663" d="M-1465.842-80.463v24.058h-3.677l-13.267-16.29v16.29h-4.433V-80.463h3.677l13.266,16.291V-80.463Z" transform="translate(1595.109 80.807)" fill="#fff"/>
      <path id="Path_664" data-name="Path 664" d="M-1438.3-68.726c0-7.114,5.5-12.372,12.957-12.372s12.956,5.224,12.956,12.372-5.5,12.372-12.956,12.372S-1438.3-61.611-1438.3-68.726Zm21.411,0a8.2,8.2,0,0,0-8.454-8.454,8.2,8.2,0,0,0-8.455,8.454,8.2,8.2,0,0,0,8.455,8.454A8.2,8.2,0,0,0-1416.891-68.726Z" transform="translate(1572.657 81.098)" fill="#fff"/>
      <path id="Path_665" data-name="Path 665" d="M-1381-80.463h4.468v24.058H-1381Z" transform="translate(1546.358 80.807)" fill="#fff"/>
      <path id="Path_666" data-name="Path 666" d="M-1363.848-59.24l1.546-3.471a13.333,13.333,0,0,0,7.939,2.646c3.746,0,5.327-1.341,5.327-3.128,0-5.19-14.3-1.787-14.3-10.723,0-3.884,3.094-7.183,9.692-7.183a15.211,15.211,0,0,1,8.007,2.131l-1.409,3.471a13.37,13.37,0,0,0-6.633-1.89c-3.713,0-5.225,1.443-5.225,3.265,0,5.121,14.263,1.787,14.263,10.619,0,3.849-3.128,7.149-9.726,7.149C-1358.109-56.353-1361.855-57.521-1363.848-59.24Z" transform="translate(1538.486 81.098)" fill="#fff"/>
      <path id="Path_667" data-name="Path 667" d="M-1301.463-60.151v3.746h-18.043V-80.463h17.562v3.746h-13.094v6.255h11.616v3.677h-11.616v6.633Z" transform="translate(1518.135 80.807)" fill="#fff"/>
    </g>
    <g id="Group_15" data-name="Group 15" transform="translate(-1773.953 -88.063)">
      <g id="Group_14" data-name="Group 14">
        <path id="Path_668" data-name="Path 668" d="M-1763.293-66.468h-5.6a4.966,4.966,0,0,1-4.3-2.486l-.094-.162a4.966,4.966,0,0,1,0-4.965l5.693-9.855a4.968,4.968,0,0,1,4.3-2.482h0a4.966,4.966,0,0,1,4.3,2.483l2.892,5.008a4.966,4.966,0,0,1,0,4.967l-2.892,5.009A4.966,4.966,0,0,1-1763.293-66.468Z" transform="translate(1773.953 87.308)" fill="#fff"/>
        <path id="Path_669" data-name="Path 669" d="M-1734.031-71.11l-7.647,13.223a2.486,2.486,0,0,1-2.152,1.241h-15.252a2.485,2.485,0,0,1-2.15-1.238l-1.56-2.688h9.9a2.486,2.486,0,0,0,2.153-1.244l8.15-14.14a2.485,2.485,0,0,0,0-2.482l-3.4-5.9a2.486,2.486,0,0,1,2.154-3.726h0a2.487,2.487,0,0,1,2.152,1.241l7.647,13.223A2.485,2.485,0,0,1-1734.031-71.11Z" transform="translate(1768.83 88.063)" fill="#fff"/>
      </g>
    </g>
  </g>
</svg>
